<svg width="20" height="14" viewBox="0 0 20 14" fill="none" xmlns="http://www.w3.org/2000/svg">
<path d="M18.9999 6H3.41294L7.7062 1.70703C8.09685 1.31641 8.09685 0.683594 7.7062 0.292969C7.31555 -0.0976562 6.68269 -0.0976562 6.29204 0.292969L0.291936 6.29266C0.199644 6.38483 0.12658 6.49548 0.0758566 6.61786C-0.0252855 6.86237 -0.0252855 7.13763 0.0758566 7.38214C0.12658 7.50452 0.199644 7.61517 0.291936 7.70734L6.29204 13.707C6.48736 13.9023 6.74324 14 6.99912 14C7.25499 14 7.51087 13.9023 7.7062 13.707C8.09685 13.3164 8.09685 12.6836 7.7062 12.293L3.41294 8H18.9999C19.5522 8 20 7.55225 20 7C20 6.44775 19.5522 6 18.9999 6Z" fill="#7894AF"/>
</svg>
