<svg width="16" height="16" viewBox="0 0 16 16" fill="none" xmlns="http://www.w3.org/2000/svg">
<path d="M8.00482 0.0002441H8H7.99518C7.99683 0.0002441 7.99835 0 8 0C8.00165 0 8.00317 0.0002441 8.00482 0.0002441ZM11 0.588989V2.81177C12.7904 3.85114 14 5.78485 14 8C14 11.3086 11.3086 14 8 14C4.69141 14 2 11.3086 2 8C2 5.78485 3.20959 3.85114 5 2.81177V0.588989C2.07202 1.77875 0 4.65002 0 8C0 12.4111 3.58887 16 8 16C12.4111 16 16 12.4111 16 8C16 4.65002 13.928 1.77875 11 0.588989ZM8 8.00024C8.55231 8.00024 9 7.55249 9 7.00024V1.00024C9 0.447937 8.55231 0.0002441 8 0.0002441C7.44775 0.0002441 7 0.447937 7 1.00024V7.00024C7 7.55249 7.44775 8.00024 8 8.00024Z" fill="#C2C8DE"/>
</svg>
