<svg width="16" height="14" viewBox="0 0 16 14" fill="none" xmlns="http://www.w3.org/2000/svg">
<path d="M8 0C3.58173 0 0 2.46246 0 5.5V8.5C0 11.5376 3.58173 14 8 14C12.4183 14 16 11.5376 16 8.5V5.5C16 2.46246 12.4183 0 8 0ZM8 2C11.5359 2 14 3.84454 14 5.5C14 7.15546 11.5359 9 8 9C4.46411 9 2 7.15546 2 5.5C2 3.84454 4.46411 2 8 2ZM8 12C5.00098 12 2.77942 10.6727 2.172 9.25964C3.63141 10.3286 5.69934 11 8 11C10.3007 11 12.3686 10.3286 13.828 9.25964C13.2206 10.6727 10.999 12 8 12Z" fill="#C2C8DE"/>
</svg>
