<svg width="16" height="10" viewBox="0 0 16 10" fill="none" xmlns="http://www.w3.org/2000/svg">
<path d="M15.4331 0.0986328C15.0869 -0.0664063 14.6763 -0.0209961 14.3755 0.219238L11 2.91962V1C11 0.447754 10.5522 0 10 0H1C0.447754 0 0 0.447754 0 1V9C0 9.55225 0.447754 10 1 10H10C10.5522 10 11 9.55225 11 9V7.08038L14.3755 9.78076C14.5562 9.92529 14.7773 10 15 10C15.1475 10 15.2954 9.96729 15.4331 9.90137C15.7798 9.73486 16 9.38428 16 9V1C16 0.615723 15.7798 0.265137 15.4331 0.0986328ZM9 8H2V2H9V8ZM14 6.91943L11.6006 5L14 3.08057V6.91943Z" fill="#35D057"/>
</svg>
