<svg width="14" height="12" viewBox="0 0 14 12" fill="none" xmlns="http://www.w3.org/2000/svg">
<path d="M2.29297 1.70703C1.90234 1.31641 1.90234 0.683594 2.29297 0.292969C2.68359 -0.0976561 3.31641 -0.0976561 3.70703 0.292969L7 3.58594L10.293 0.292969C10.6836 -0.0976562 11.3164 -0.0976562 11.707 0.292969C12.0977 0.683594 12.0977 1.31641 11.707 1.70703L7.70703 5.70703C7.51172 5.90234 7.25586 6 7 6C6.74414 6 6.48828 5.90234 6.29297 5.70703L2.29297 1.70703ZM13.707 4.29297C13.3164 3.90234 12.6836 3.90234 12.293 4.29297L7 9.58594L1.70703 4.29297C1.31641 3.90234 0.683594 3.90234 0.292969 4.29297C-0.0976562 4.68359 -0.0976562 5.31641 0.292969 5.70703L6.29297 11.707C6.48828 11.9023 6.74414 12 7 12C7.25586 12 7.51172 11.9023 7.70703 11.707L13.707 5.70703C14.0977 5.31641 14.0977 4.68359 13.707 4.29297Z" fill="white"/>
</svg>
