<svg width="16" height="16" viewBox="0 0 16 16" fill="none" xmlns="http://www.w3.org/2000/svg">
<path d="M8 1C3.58173 1 0 3.46246 0 6.5V9.5C0 12.5376 3.58173 15 8 15C12.4183 15 16 12.5376 16 9.5V6.5C16 3.46246 12.4183 1 8 1ZM8 3C11.5359 3 14 4.84454 14 6.5C14 8.15546 11.5359 10 8 10C4.46411 10 2 8.15546 2 6.5C2 4.84454 4.46411 3 8 3ZM8 13C5.00098 13 2.77942 11.6727 2.172 10.2596C3.63141 11.3286 5.69934 12 8 12C10.3007 12 12.3686 11.3286 13.828 10.2596C13.2206 11.6727 10.999 13 8 13Z" fill="#C2C8DE"/>
</svg>
