<svg width="24" height="24" viewBox="0 0 24 24" fill="none" xmlns="http://www.w3.org/2000/svg">
<path d="M23 5H14V1C14 0.447754 13.5522 0 13 0H1C0.447754 0 0 0.447754 0 1V9C0 9.55225 0.447754 10 1 10H2V13C2 13.4043 2.24365 13.769 2.61719 13.9238C2.74121 13.9751 2.87109 14 3 14C3.26025 14 3.51562 13.8984 3.70703 13.707L6 11.4141V18C6 18.5522 6.44775 19 7 19H13.5859L18.293 23.707C18.4844 23.8984 18.7397 24 19 24C19.1289 24 19.2588 23.9751 19.3828 23.9238C19.7563 23.769 20 23.4043 20 23V19H23C23.5522 19 24 18.5522 24 18V6C24 5.44775 23.5522 5 23 5ZM6 6V8.58594L4 10.5859V9C4 8.44775 3.55225 8 3 8H2V2H12V5H7C6.44775 5 6 5.44775 6 6ZM22 17H19C18.4478 17 18 17.4478 18 18V20.5859L14.707 17.293C14.5195 17.1055 14.2651 17 14 17H8V7H22V17Z" fill="white"/>
</svg>
