<svg width="20" height="20" viewBox="0 0 20 20" fill="none" xmlns="http://www.w3.org/2000/svg">
<path d="M7 7H9V9H7V7ZM13 7H11V9H13V7ZM7 13H9V11H7V13ZM13 11H11V13H13V11ZM1 4.04883V15.9512C1 17.635 2.36499 19 4.04883 19H9V17H4.04883C3.47052 17 3 16.5295 3 15.9512V4.04883C3 3.47052 3.47052 3 4.04883 3H9V1H4.04883C2.36499 1 1 2.36499 1 4.04883ZM15.9512 1H11V3H15.9512C16.5295 3 17 3.47052 17 4.04883V15.9512C17 16.5295 16.5295 17 15.9512 17H11V19H15.9512C17.635 19 19 17.635 19 15.9512V4.04883C19 2.36499 17.635 1 15.9512 1Z" fill="#C2C8DE"/>
</svg>
