<svg width="32" height="48" viewBox="0 0 32 48" fill="none" xmlns="http://www.w3.org/2000/svg">
<path d="M8.07585 19.3821C7.97472 19.1376 7.97472 18.8624 8.07585 18.6179C8.12657 18.4955 8.19963 18.3848 8.29192 18.2927L12.2916 14.293C12.6822 13.9023 13.315 13.9023 13.7057 14.293C14.0963 14.6836 14.0963 15.3164 13.7057 15.707L11.4127 18H22.9986C23.5509 18 23.9986 18.4478 23.9986 19C23.9986 19.5522 23.5509 20 22.9986 20H11.4127L13.7057 22.293C14.0963 22.6836 14.0963 23.3164 13.7057 23.707C13.5104 23.9023 13.2545 24 12.9986 24C12.7428 24 12.4869 23.9023 12.2916 23.707L8.29192 19.7073C8.19963 19.6152 8.12657 19.5045 8.07585 19.3821ZM25.9214 29.3821C26.0226 29.1376 26.0226 28.8624 25.9214 28.6179C25.8707 28.4955 25.7977 28.3848 25.7054 28.2927L21.7057 24.293C21.315 23.9023 20.6822 23.9023 20.2916 24.293C19.901 24.6836 19.901 25.3164 20.2916 25.707L22.5846 28H10.9986C10.4464 28 9.99864 28.4478 9.99864 29C9.99864 29.5522 10.4464 30 10.9986 30H22.5846L20.2916 32.293C19.901 32.6836 19.901 33.3164 20.2916 33.707C20.4869 33.9023 20.7428 34 20.9986 34C21.2545 34 21.5104 33.9023 21.7057 33.707L25.7054 29.7073C25.7977 29.6152 25.8707 29.5045 25.9214 29.3821Z" fill="white"/>
</svg>
