<svg width="40" height="96" viewBox="0 0 40 96" fill="none" xmlns="http://www.w3.org/2000/svg">
<rect x="-56" width="96" height="96" rx="48" fill="#7894AF"/>
<path d="M23.7571 46.7L23.7143 46.5714H22.2857L22.2428 46.7L18 58H19.5286L20.5985 55.1429H25.4014L26.4714 58H28L23.7571 46.7ZM21.1328 53.7143L23 48.7286L24.8672 53.7143H21.1328ZM14.7 48.1628C15.5128 48.9743 16.33 49.6757 17.01 50.2071L16.13 51.3314C15.4214 50.7771 14.5757 50.0457 13.73 49.2014C11.53 51.3943 9.26709 52.7857 9.08425 52.8971L8.34284 51.6757C8.38574 51.6485 10.6157 50.27 12.7429 48.1471C11.2886 46.49 9.98425 44.4857 9.57288 42.2857H11.0214C11.4171 44.0543 12.4929 45.7043 13.7143 47.1085C15.2743 45.3186 16.5714 43.15 16.5714 40.8571H8V39.4286H13.7143V38H15.1429V39.4286H20.8571V40.8571H18C18 43.6185 16.4814 46.1414 14.7 48.1628Z" fill="white"/>
</svg>
