<svg width="26" height="31" viewBox="0 0 26 31" fill="none" xmlns="http://www.w3.org/2000/svg">
<path d="M19 19.9985C15.6498 19.9985 13.9109 20.8984 13 21.8447C12.0891 20.8984 10.3502 19.9985 7 19.9985C6.44775 19.9985 6 20.4463 6 20.9985V26.9985C6 27.5508 6.44775 27.9985 7 27.9985C10.8379 27.9985 11.9492 29.3286 12 29.9985C12 30.1341 12.0276 30.262 12.0767 30.3783C12.2264 30.7418 12.5825 30.9985 13 30.9985C13.5095 30.9985 13.9135 30.6117 13.9756 30.1191C13.9807 30.0889 13.9968 30.0628 13.999 30.0317C14.0508 29.3286 15.1621 27.9985 19 27.9985C19.5522 27.9985 20 27.5508 20 26.9985V20.9985C20 20.4463 19.5522 19.9985 19 19.9985ZM12 27.0729C11.1168 26.5536 9.84265 26.1443 8 26.0339V22.0352C11.0291 22.2451 11.954 23.3914 12 23.9985V27.0729ZM18 26.0339C16.1573 26.1443 14.8832 26.5536 14 27.0729V24.0257C14.052 23.3872 14.9799 22.2448 18 22.0353V26.0339ZM26 24.9985C26 25.5508 25.5522 25.9985 25 25.9985C24.4478 25.9985 24 25.5508 24 24.9985C24 19.2706 19.5979 14.5567 13.9999 14.0492V11.8975C16.2792 11.4329 17.9995 9.41345 17.9995 6.99902C17.9995 4.24268 15.7568 2 13 2C10.2432 2 8.00049 4.24268 8.00049 6.99902C8.00049 9.41339 9.72083 11.4329 11.9999 11.8974V14.0492C6.4021 14.5568 2 19.2707 2 24.9985C2 25.5508 1.55225 25.9985 1 25.9985C0.447754 25.9985 0 25.5508 0 24.9985C0 19.2598 3.74158 14.3866 8.91034 12.6675C7.15143 11.3948 6.00049 9.33105 6.00049 6.99902C6.00049 3.13965 9.14062 0 13 0C16.8594 0 19.9995 3.13965 19.9995 6.99902C19.9995 9.33105 18.8486 11.3948 17.0897 12.6675C22.2584 14.3866 26 19.2598 26 24.9985Z" fill="url(#paint0_linear)"/>
<defs>
<linearGradient id="paint0_linear" x1="26" y1="15.4993" x2="0" y2="15.4993" gradientUnits="userSpaceOnUse">
<stop stop-color="#DC1B48"/>
<stop offset="1" stop-color="#FF756D"/>
</linearGradient>
</defs>
</svg>
