<svg width="26" height="22" viewBox="0 0 26 22" fill="none" xmlns="http://www.w3.org/2000/svg">
<path d="M2 6C2 6.55231 1.55231 7 1 7C0.447693 7 0 6.55231 0 6C0 5.44775 0.447693 5 1 5C1.55231 5 2 5.44775 2 6ZM1 0C0.447693 0 0 0.447754 0 1C0 1.55231 0.447693 2 1 2C1.55231 2 2 1.55231 2 1C2 0.447754 1.55231 0 1 0ZM1 20C0.447693 20 0 20.4478 0 21C0 21.5523 0.447693 22 1 22C1.55231 22 2 21.5523 2 21C2 20.4478 1.55231 20 1 20ZM1 15C0.447693 15 0 15.4478 0 16C0 16.5523 0.447693 17 1 17C1.55231 17 2 16.5523 2 16C2 15.4478 1.55231 15 1 15ZM1 10C0.447693 10 0 10.4478 0 11C0 11.5523 0.447693 12 1 12C1.55231 12 2 11.5523 2 11C2 10.4478 1.55231 10 1 10ZM5 7H23C23.5523 7 24 6.55231 24 6C24 5.44775 23.5523 5 23 5H5C4.44769 5 4 5.44775 4 6C4 6.55231 4.44769 7 5 7ZM25 0H5C4.44769 0 4 0.447754 4 1C4 1.55231 4.44769 2 5 2H25C25.5523 2 26 1.55231 26 1C26 0.447754 25.5523 0 25 0ZM5 17H20C20.5523 17 21 16.5523 21 16C21 15.4478 20.5523 15 20 15H5C4.44769 15 4 15.4478 4 16C4 16.5523 4.44769 17 5 17ZM23 20H5C4.44769 20 4 20.4478 4 21C4 21.5523 4.44769 22 5 22H23C23.5523 22 24 21.5523 24 21C24 20.4478 23.5523 20 23 20ZM24 10H5C4.44769 10 4 10.4478 4 11C4 11.5523 4.44769 12 5 12H24C24.5523 12 25 11.5523 25 11C25 10.4478 24.5523 10 24 10Z" fill="url(#paint0_linear)"/>
<defs>
<linearGradient id="paint0_linear" x1="26" y1="11" x2="0" y2="11" gradientUnits="userSpaceOnUse">
<stop stop-color="#DC1B48"/>
<stop offset="1" stop-color="#FF756D"/>
</linearGradient>
</defs>
</svg>
