<svg width="15" height="15" viewBox="0 0 15 15" fill="none" xmlns="http://www.w3.org/2000/svg">
<path d="M14.9986 9C14.9986 12.3086 12.3072 15 8.99864 15H6.99864C6.4464 15 5.99864 14.5522 5.99864 14C5.99864 13.4478 6.4464 13 6.99864 13H8.99864C11.2042 13 12.9986 11.2056 12.9986 9C12.9986 6.79443 11.2042 5 8.99864 5H3.4127L4.70567 6.29297C5.0963 6.68359 5.0963 7.31641 4.70567 7.70703C4.51036 7.90234 4.2545 8 3.99864 8C3.74278 8 3.48692 7.90234 3.29161 7.70703L0.291916 4.70734C0.199631 4.61517 0.126572 4.50452 0.0758515 4.38214C-0.0252838 4.13763 -0.0252838 3.86237 0.0758515 3.61786C0.126572 3.49548 0.199631 3.38483 0.291916 3.29266L3.29161 0.292969C3.68224 -0.0976562 4.31505 -0.0976562 4.70567 0.292969C5.0963 0.683594 5.0963 1.31641 4.70567 1.70703L3.4127 3H8.99864C12.3072 3 14.9986 5.69141 14.9986 9Z" fill="url(#paint0_linear)"/>
<defs>
<linearGradient id="paint0_linear" x1="14.9986" y1="7.5" x2="0" y2="7.5" gradientUnits="userSpaceOnUse">
<stop stop-color="#DC1B48"/>
<stop offset="1" stop-color="#FF756D"/>
</linearGradient>
</defs>
</svg>
