<svg width="18" height="18" viewBox="0 0 18 18" fill="none" xmlns="http://www.w3.org/2000/svg">
<path d="M2.83295 9.75293L1.39935 11.1865C0.524475 10.0181 0 8.57214 0 7.00012C0 3.13416 3.13397 0.00012207 7 0.00012207C8.57196 0.00012207 10.0179 0.524597 11.1864 1.39948L9.75281 2.83307C8.96234 2.30914 8.01733 2.00012 7 2.00012C4.24298 2.00012 2 4.24316 2 7.00012C2 8.01746 2.30902 8.96246 2.83295 9.75293ZM17.707 16.2929L12.6006 11.1865C13.4755 10.0181 14 8.57214 14 7.00012C14 5.42816 13.4755 3.98218 12.6006 2.81372L11.1671 4.24731C11.691 5.03778 12 5.98279 12 7.00012C12 9.75714 9.75702 12.0001 7 12.0001C5.98267 12.0001 5.03766 11.6911 4.24719 11.1672L2.8136 12.6008C3.98206 13.4756 5.42798 14.0001 7 14.0001C8.57208 14.0001 10.0181 13.4756 11.1866 12.6006L16.2929 17.707C16.4882 17.9023 16.7441 17.9999 16.9999 17.9999C17.2558 17.9999 17.5117 17.9023 17.707 17.707C18.0976 17.3163 18.0976 16.6835 17.707 16.2929Z" fill="#DC1B48"/>
</svg>
