<svg width="20" height="20" viewBox="0 0 20 20" fill="none" xmlns="http://www.w3.org/2000/svg">
<path d="M3.83295 10.7529L2.39935 12.1865C1.52448 11.018 1 9.57211 1 8.00007C1 4.13406 4.13397 1 8 1C9.57196 1 11.0179 1.52448 12.1864 2.39937L10.7528 3.83298C9.96234 3.30904 9.01733 3.00002 8 3.00002C5.24298 3.00002 3 5.24308 3 8.00007C3 9.01742 3.30902 9.96243 3.83295 10.7529ZM18.707 17.293L13.6006 12.1865C14.4755 11.018 15 9.57211 15 8.00007C15 6.42809 14.4755 4.9821 13.6006 3.81363L12.1671 5.24724C12.691 6.03771 13 6.98273 13 8.00007C13 10.7571 10.757 13.0001 8 13.0001C6.98267 13.0001 6.03766 12.6911 5.24719 12.1672L3.8136 13.6008C4.98206 14.4757 6.42798 15.0001 8 15.0001C9.57208 15.0001 11.0181 14.4756 12.1866 13.6007L17.2929 18.707C17.4882 18.9023 17.7441 19 17.9999 19C18.2558 19 18.5117 18.9023 18.707 18.707C19.0976 18.3164 19.0976 17.6836 18.707 17.293Z" fill="#C2C8DE"/>
</svg>
