<svg width="28" height="28" viewBox="0 0 28 28" fill="none" xmlns="http://www.w3.org/2000/svg">
<path d="M27.3743 15.951L25.9039 15.1706L25.8414 15.0457C25.9039 14.3278 25.9039 13.6098 25.8414 12.8918L25.9039 12.767L27.343 12.0491L27.9687 10.3947L26.4045 6.64886L24.7776 5.89966L23.2447 6.39917L23.1196 6.36792C22.6503 5.80603 22.1497 5.30658 21.5866 4.83838L21.5553 4.7135L22.0558 3.18396L21.305 1.56079L17.5508 0L15.8927 0.624329L15.2045 2.12262L15.0793 2.18506C14.7195 2.15387 14.3597 2.13824 14 2.13824C13.6402 2.13824 13.2804 2.15387 12.9207 2.18506L12.7955 2.12262L12.0759 0.686768L10.4178 0.062439L6.66364 1.62323L5.91284 3.2464L6.41345 4.77594L6.38214 4.90076C5.81897 5.36902 5.31842 5.86847 4.84918 6.4303L4.72406 6.46155L3.1911 5.9621L1.56427 6.7113L0 10.4571L0.625671 12.1115L2.06476 12.8295L2.12738 12.9543C2.06476 13.6723 2.06476 14.3903 2.12738 15.1082L2.06476 15.233L0.625671 15.951L0 17.6053L1.56427 21.3512L3.1911 22.1004L4.72406 21.6009L4.84918 21.6321C5.31842 22.194 5.81897 22.6935 6.38214 23.1617L6.41345 23.2866L5.91284 24.8161L6.66364 26.4393L10.4178 28L12.0759 27.3757L12.7955 25.9398L12.9207 25.8774C13.2804 25.9086 13.6402 25.9243 14 25.9243C14.3597 25.9243 14.7195 25.9086 15.0793 25.8774L15.2045 25.9398L15.924 27.3757L17.5821 28L21.3363 26.4393L22.0871 24.8161L21.5866 23.2866L21.6179 23.1617C22.181 22.6935 22.6816 22.194 23.1508 21.6321L23.276 21.6009L24.809 22.1004L26.4357 21.3512L28 17.6053L27.3743 15.951ZM24.8907 19.8608L24.6838 19.9561L23.8956 19.6993L23.3493 19.5213L22.7919 19.6604L22.6667 19.6916L22.0339 19.8495L21.6158 20.3501C21.2253 20.8176 20.8077 21.2343 20.3392 21.6238L19.8366 22.0417L19.6778 22.6757L19.6465 22.8006L19.5063 23.3602L19.6858 23.9086L19.9417 24.6904L19.8484 24.8918L17.5457 25.8492L17.3613 25.7798L16.9925 25.0438L16.6938 24.4478L16.0974 24.1502L15.9722 24.0878L15.4678 23.8362L14.9064 23.8849C14.6055 23.911 14.3006 23.9243 14 23.9243C13.6993 23.9243 13.3944 23.911 13.0936 23.8849L12.5321 23.8362L12.0278 24.0878L11.9026 24.1502L11.3062 24.4478L11.0074 25.0438L10.6386 25.7798L10.4543 25.8492L8.15149 24.8918L8.05835 24.6905L8.31421 23.9087L8.49371 23.3603L8.35345 22.8006L8.3222 22.6757L8.16333 22.0416L7.66071 21.6237C7.19232 21.2344 6.77478 20.8177 6.38422 20.3501L5.96613 19.8495L5.33331 19.6916L5.20813 19.6604L4.6507 19.5213L4.10443 19.6993L3.31622 19.9561L3.10925 19.8608L2.1521 17.5688L2.21936 17.3911L2.95764 17.0227L3.55426 16.725L3.85291 16.1289L3.91553 16.004L4.16895 15.4981L4.11981 14.9344C4.06757 14.3351 4.06757 13.7274 4.11981 13.1279L4.16895 12.564L3.91522 12.0579L3.85266 11.933L3.55396 11.3373L2.95764 11.0399L2.21936 10.6715L2.1521 10.4937L3.10925 8.20166L3.31622 8.10638L4.10449 8.36316L4.65076 8.54114L5.20813 8.40204L5.33331 8.37085L5.96613 8.21295L6.38422 7.71234C6.77466 7.24487 7.19226 6.82825 7.66083 6.4386L8.16321 6.02087L8.32208 5.38708L8.35339 5.26227L8.49371 4.70239L8.31421 4.15387L8.05835 3.37201L8.15149 3.17059L10.4543 2.21326L10.6386 2.28265L11.0074 3.01868L11.3061 3.61469L11.9026 3.91229L12.0278 3.97473L12.5321 4.22632L13.0936 4.17761C13.3944 4.15149 13.6993 4.13824 14 4.13824C14.3006 4.13824 14.6055 4.15149 14.9064 4.17761L15.4678 4.22632L15.9722 3.97473L16.0974 3.91229L16.7278 3.59772L17.0219 2.95746L17.3669 2.2063L17.5143 2.15082L19.8171 3.10815L19.9103 3.30963L19.6545 4.09149L19.475 4.63989L19.6152 5.19958L19.6465 5.32446L19.8054 5.95844L20.3079 6.37628C20.7766 6.76593 21.1942 7.18256 21.5844 7.6499L22.0026 8.15057L22.6354 8.30847L22.7606 8.33966L23.318 8.47876L23.8643 8.30078L24.6525 8.04395L24.8594 8.13922L25.8166 10.4313L25.7494 10.609L25.011 10.9774L24.4142 11.2751L24.1156 11.8715L24.0531 11.9963L23.7998 12.502L23.8489 13.0654C23.9011 13.6649 23.9011 14.2728 23.8489 14.8722L23.7999 15.4353L24.0528 15.9407L24.1153 16.0657L24.4015 16.6375L24.9663 16.9372L25.7704 17.364L25.8479 17.5688L24.8907 19.8608ZM14 9C11.2386 9 9 11.2386 9 14C9 16.7614 11.2386 19 14 19C16.7614 19 19 16.7614 19 14C19 11.2386 16.7614 9 14 9ZM14 17C12.3458 17 11 15.6542 11 14C11 12.3458 12.3458 11 14 11C15.6542 11 17 12.3458 17 14C17 15.6542 15.6542 17 14 17Z" fill="url(#paint0_linear)"/>
<defs>
<linearGradient id="paint0_linear" x1="28" y1="14" x2="0" y2="14" gradientUnits="userSpaceOnUse">
<stop stop-color="#DC1B48"/>
<stop offset="1" stop-color="#FF756D"/>
</linearGradient>
</defs>
</svg>
