<svg width="18" height="16" viewBox="0 0 18 16" fill="none" xmlns="http://www.w3.org/2000/svg">
<path d="M0 2C0 1.44775 0.447754 1 1 1H2C2 0.447754 2.44775 0 3 0C3.55225 0 4 0.447754 4 1H17C17.5522 1 18 1.44775 18 2C18 2.55225 17.5522 3 17 3H4C4 3.55225 3.55225 4 3 4C2.44775 4 2 3.55225 2 3H1C0.447754 3 0 2.55225 0 2ZM17 7H10C10 6.44775 9.55225 6 9 6C8.44775 6 8 6.44775 8 7H1C0.447754 7 0 7.44775 0 8C0 8.55225 0.447754 9 1 9H8C8 9.55225 8.44775 10 9 10C9.55225 10 10 9.55225 10 9H17C17.5522 9 18 8.55225 18 8C18 7.44775 17.5522 7 17 7ZM17 13H16C16 12.4478 15.5522 12 15 12C14.4478 12 14 12.4478 14 13H1C0.447754 13 0 13.4478 0 14C0 14.5522 0.447754 15 1 15H14C14 15.5522 14.4478 16 15 16C15.5522 16 16 15.5522 16 15H17C17.5522 15 18 14.5522 18 14C18 13.4478 17.5522 13 17 13Z" fill="#7894AF"/>
</svg>
