<svg width="16" height="16" viewBox="0 0 16 16" fill="none" xmlns="http://www.w3.org/2000/svg">
<path d="M13.5253 13.3882C13.6991 13.6528 13.8576 13.9271 14 14.2098V14.4576C13.8407 14.6964 13.632 14.8983 13.388 15.0497C12.7286 15.53 11.9574 15.834 11.1474 15.933C9.6196 16.1415 8.16599 15.849 6.78245 15.2191C3.92844 13.9201 1.88108 11.819 0.655737 8.92853C0.177343 7.82812 -0.0443974 6.63336 0.00736047 5.43469C0.0676022 4.19025 0.452673 3.07043 1.33072 2.15222C1.39475 2.0954 1.46366 2.04437 1.5366 1.99963H1.78306C2.43705 2.24182 2.93699 2.69952 3.43693 3.16284C3.84171 3.5307 4.22471 3.92194 4.58384 4.33447C4.93607 4.73792 5.1262 5.25757 5.11741 5.79303C5.11466 5.97498 5.08542 6.15558 5.03055 6.3291C4.88712 6.82501 4.42643 7.16113 3.91025 7.14661H3.70719C3.39493 9.76135 6.22788 12.6057 8.83957 12.2852C8.848 12.1452 8.83957 12.0052 8.86478 11.8778C8.96982 11.1667 9.74003 10.737 10.3142 10.7776C10.6162 10.798 10.9081 10.8943 11.1628 11.0576C11.4277 11.2186 11.6775 11.4032 11.9092 11.6091C12.5035 12.1492 13.0446 12.745 13.5253 13.3882ZM15.8536 0.146484C15.6583 -0.0488281 15.3419 -0.0488281 15.1466 0.146484L9.0001 6.29297V2.5C9.0001 2.22363 8.77646 2 8.5001 2C8.22373 2 8.0001 2.22363 8.0001 2.5V7.5C8.0001 7.56506 8.01328 7.62982 8.03855 7.69092C8.08921 7.81335 8.18674 7.91089 8.30918 7.96155C8.37028 7.98682 8.43503 8 8.5001 8H13.5001C13.7765 8 14.0001 7.77637 14.0001 7.5C14.0001 7.22363 13.7765 7 13.5001 7H9.70713L15.8536 0.853516C16.0489 0.658203 16.0489 0.341797 15.8536 0.146484Z" fill="#DC1B48"/>
</svg>
