<svg width="20" height="20" viewBox="0 0 20 20" fill="none" xmlns="http://www.w3.org/2000/svg">
<path d="M2 9H9V11H2C1.44775 11 1 10.5522 1 10C1 9.44769 1.44775 9 2 9ZM1 4C1 4.55225 1.44775 5 2 5H9V3H2C1.44775 3 1 3.44769 1 4ZM19 4C19 3.44769 18.5523 3 18 3H11V5H18C18.5523 5 19 4.55225 19 4ZM18 9H11V11H18C18.5523 11 19 10.5522 19 10C19 9.44769 18.5523 9 18 9ZM1 16C1 16.5522 1.44775 17 2 17H9V15H2C1.44775 15 1 15.4477 1 16ZM18 15H11V17H18C18.5523 17 19 16.5522 19 16C19 15.4477 18.5523 15 18 15Z" fill="#C2C8DE"/>
</svg>
