<svg width="10" height="10" viewBox="0 0 10 10" fill="none" xmlns="http://www.w3.org/2000/svg">
<path d="M9.70703 8.29297C10.0977 8.68359 10.0977 9.31641 9.70703 9.70703C9.51172 9.90234 9.25586 10 9 10C8.74414 10 8.48828 9.90234 8.29297 9.70703L5 6.41406L1.70703 9.70703C1.51172 9.90234 1.25586 10 1 10C0.744141 10 0.488281 9.90234 0.292969 9.70703C-0.0976562 9.31641 -0.0976562 8.68359 0.292969 8.29297L3.58594 5L0.292969 1.70703C-0.0976562 1.31641 -0.0976562 0.683594 0.292969 0.292969C0.683594 -0.0976561 1.31641 -0.0976561 1.70703 0.292969L5 3.58594L8.29297 0.292969C8.68359 -0.0976562 9.31641 -0.0976562 9.70703 0.292969C10.0977 0.683594 10.0977 1.31641 9.70703 1.70703L6.41406 5L9.70703 8.29297Z" fill="#6E7388"/>
</svg>
