<svg width="20" height="20" viewBox="0 0 20 20" fill="none" xmlns="http://www.w3.org/2000/svg">
<path d="M15 9.97869H11V7.97443H15V9.97869ZM5 9.97869H9V7.97443H5V9.97869ZM20 8.97656C20 4.81952 16.0532 1.40234 11 1V3.01594C14.94 3.38765 18 5.91616 18 8.97656C18 10.5097 17.2122 11.9772 15.7819 13.1086L14.8355 13.8572L15.0542 15.0454L15.0928 15.2547L14.6388 14.9075L13.835 14.2927L12.8644 14.5768C12.2532 14.7558 11.6282 14.8551 11 14.9176V16.9488C11.8433 16.8789 12.6556 16.726 13.4253 16.5007L18 20L17.0211 14.6819C18.8588 13.2282 20 11.2099 20 8.97656ZM0 8.97656C0 13.1336 3.94678 16.5508 9 16.9531V14.9372C5.06006 14.5655 2 12.037 2 8.97656C2 5.91616 5.06006 3.38765 9 3.01594V1C3.94678 1.40234 0 4.81952 0 8.97656Z" fill="#C2C8DE"/>
</svg>
