<svg width="42" height="42" viewBox="0 0 42 42" fill="none" xmlns="http://www.w3.org/2000/svg">
<g filter="url(#filter0_d)">
<rect x="5" y="2" width="32" height="32" rx="4" fill="url(#paint0_linear)"/>
</g>
<path d="M26.4858 10.1255C26.1685 9.94976 25.7808 9.95904 25.4717 10.1504L20.4717 13.2618C20.2105 13.4243 20.0485 13.698 20.0143 13.9996H16C15.4478 13.9996 15 14.4473 15 14.9996V20.9996C15 21.5518 15.4478 21.9996 16 21.9996H20.0142C20.0483 22.3013 20.2104 22.5752 20.4717 22.7378L25.4717 25.8487C25.6333 25.9493 25.8164 25.9996 26 25.9996C26.167 25.9996 26.3345 25.9576 26.4858 25.8736C26.8032 25.6973 27 25.3628 27 24.9996V10.9996C27 10.6363 26.8032 10.3018 26.4858 10.1255ZM17 15.9996H20V19.9996H17V15.9996ZM25 23.1998L22 21.3331V20.9996V14.9996V14.6666L25 12.7999V23.1998Z" fill="white"/>
<defs>
<filter id="filter0_d" x="0" y="0" width="42" height="42" filterUnits="userSpaceOnUse" color-interpolation-filters="sRGB">
<feFlood flood-opacity="0" result="BackgroundImageFix"/>
<feColorMatrix in="SourceAlpha" type="matrix" values="0 0 0 0 0 0 0 0 0 0 0 0 0 0 0 0 0 0 127 0"/>
<feOffset dy="3"/>
<feGaussianBlur stdDeviation="2.5"/>
<feColorMatrix type="matrix" values="0 0 0 0 0.164706 0 0 0 0 0.184314 0 0 0 0 0.266667 0 0 0 0.1 0"/>
<feBlend mode="normal" in2="BackgroundImageFix" result="effect1_dropShadow"/>
<feBlend mode="normal" in="SourceGraphic" in2="effect1_dropShadow" result="shape"/>
</filter>
<linearGradient id="paint0_linear" x1="37" y1="18" x2="5" y2="18" gradientUnits="userSpaceOnUse">
<stop stop-color="#DC1B48"/>
<stop offset="1" stop-color="#FF756D"/>
</linearGradient>
</defs>
</svg>
