<svg width="153" height="18" viewBox="0 0 153 18" fill="none" xmlns="http://www.w3.org/2000/svg">
<path d="M21 4.5H20.5964C19.6134 2.99728 17.9207 2 15.9946 2H8.00537C6.07935 2 4.38657 2.99728 3.40359 4.5H3C1.3457 4.5 0 5.8457 0 7.5V11C0 12.6543 1.3457 14 3 14H8.00537H15.9946H16.5L20.5 18V14H21C22.6543 14 24 12.6543 24 11V7.5C24 5.8457 22.6543 4.5 21 4.5ZM8.00537 4H15.9946C17.0345 4 17.9667 4.45764 18.6083 5.17975C18.0569 5.63019 17.665 6.26865 17.5417 7H6.45825C6.33502 6.26865 5.94312 5.63019 5.39172 5.17975C6.03326 4.45764 6.96548 4 8.00537 4ZM22 11C22 11.5515 21.5515 12 21 12H3C2.44849 12 2 11.5515 2 11V7.5C2 6.94849 2.44849 6.5 3 6.5H3.5C4.05151 6.5 4.5 6.94849 4.5 7.5V9H19.5V7.5C19.5 6.94849 19.9485 6.5 20.5 6.5H21C21.5515 6.5 22 6.94849 22 7.5V11Z" fill="url(#paint0_linear)"/>
<path d="M38.688 14.16C37.5573 14.16 36.5333 13.9147 35.616 13.424C34.7093 12.9227 33.9947 12.2347 33.472 11.36C32.96 10.4853 32.704 9.49867 32.704 8.4C32.704 7.30133 32.9653 6.31467 33.488 5.44C34.0107 4.56533 34.7253 3.88267 35.632 3.392C36.5493 2.89067 37.5733 2.64 38.704 2.64C39.6213 2.64 40.4587 2.8 41.216 3.12C41.9733 3.44 42.6133 3.904 43.136 4.512L41.792 5.776C40.9813 4.90133 39.984 4.464 38.8 4.464C38.032 4.464 37.344 4.63467 36.736 4.976C36.128 5.30667 35.6533 5.77067 35.312 6.368C34.9707 6.96533 34.8 7.64267 34.8 8.4C34.8 9.15733 34.9707 9.83467 35.312 10.432C35.6533 11.0293 36.128 11.4987 36.736 11.84C37.344 12.1707 38.032 12.336 38.8 12.336C39.984 12.336 40.9813 11.8933 41.792 11.008L43.136 12.288C42.6133 12.896 41.968 13.36 41.2 13.68C40.4427 14 39.6053 14.16 38.688 14.16ZM48.4645 14.112C47.6005 14.112 46.8218 13.9253 46.1285 13.552C45.4352 13.1787 44.8912 12.6613 44.4965 12C44.1125 11.328 43.9205 10.5707 43.9205 9.728C43.9205 8.88533 44.1125 8.13333 44.4965 7.472C44.8912 6.81067 45.4352 6.29333 46.1285 5.92C46.8218 5.54667 47.6005 5.36 48.4645 5.36C49.3392 5.36 50.1232 5.54667 50.8165 5.92C51.5098 6.29333 52.0485 6.81067 52.4325 7.472C52.8272 8.13333 53.0245 8.88533 53.0245 9.728C53.0245 10.5707 52.8272 11.328 52.4325 12C52.0485 12.6613 51.5098 13.1787 50.8165 13.552C50.1232 13.9253 49.3392 14.112 48.4645 14.112ZM48.4645 12.4C49.2005 12.4 49.8085 12.1547 50.2885 11.664C50.7685 11.1733 51.0085 10.528 51.0085 9.728C51.0085 8.928 50.7685 8.28267 50.2885 7.792C49.8085 7.30133 49.2005 7.056 48.4645 7.056C47.7285 7.056 47.1205 7.30133 46.6405 7.792C46.1712 8.28267 45.9365 8.928 45.9365 9.728C45.9365 10.528 46.1712 11.1733 46.6405 11.664C47.1205 12.1547 47.7285 12.4 48.4645 12.4ZM63.209 5.456V14H61.305V12.912C60.985 13.296 60.585 13.5947 60.105 13.808C59.625 14.0107 59.1077 14.112 58.553 14.112C57.4117 14.112 56.5103 13.7973 55.849 13.168C55.1983 12.528 54.873 11.584 54.873 10.336V5.456H56.873V10.064C56.873 10.832 57.0437 11.408 57.385 11.792C57.737 12.1653 58.233 12.352 58.873 12.352C59.5877 12.352 60.153 12.1333 60.569 11.696C60.9957 11.248 61.209 10.608 61.209 9.776V5.456H63.209ZM69.7476 14.112C68.8623 14.112 68.0676 13.9253 67.3636 13.552C66.6596 13.1787 66.1103 12.6613 65.7156 12C65.321 11.328 65.1236 10.5707 65.1236 9.728C65.1236 8.88533 65.321 8.13333 65.7156 7.472C66.1103 6.81067 66.6543 6.29333 67.3476 5.92C68.0516 5.54667 68.8516 5.36 69.7476 5.36C70.5903 5.36 71.3263 5.53067 71.9556 5.872C72.5956 6.21333 73.0756 6.704 73.3956 7.344L71.8596 8.24C71.6143 7.84533 71.305 7.552 70.9316 7.36C70.569 7.15733 70.169 7.056 69.7316 7.056C68.985 7.056 68.3663 7.30133 67.8756 7.792C67.385 8.272 67.1396 8.91733 67.1396 9.728C67.1396 10.5387 67.3796 11.1893 67.8596 11.68C68.3503 12.16 68.9743 12.4 69.7316 12.4C70.169 12.4 70.569 12.304 70.9316 12.112C71.305 11.9093 71.6143 11.6107 71.8596 11.216L73.3956 12.112C73.065 12.752 72.5796 13.248 71.9396 13.6C71.3103 13.9413 70.5796 14.112 69.7476 14.112ZM79.8944 5.36C80.9717 5.36 81.8357 5.67467 82.4864 6.304C83.137 6.93333 83.4624 7.86667 83.4624 9.104V14H81.4624V9.36C81.4624 8.61333 81.2864 8.05333 80.9344 7.68C80.5824 7.296 80.081 7.104 79.4304 7.104C78.6944 7.104 78.113 7.328 77.6864 7.776C77.2597 8.21333 77.0464 8.848 77.0464 9.68V14H75.0464V2.128H77.0464V6.448C77.377 6.096 77.7824 5.82933 78.2624 5.648C78.753 5.456 79.297 5.36 79.8944 5.36Z" fill="#DC1B48"/>
<path d="M88.4635 4.56H84.7515V2.8H94.2555V4.56H90.5435V14H88.4635V4.56ZM97.3254 6.704C97.9014 5.808 98.9147 5.36 100.365 5.36V7.264C100.195 7.232 100.04 7.216 99.9014 7.216C99.1227 7.216 98.5147 7.44533 98.0774 7.904C97.64 8.352 97.4214 9.00267 97.4214 9.856V14H95.4214V5.456H97.3254V6.704ZM105.279 5.36C106.538 5.36 107.498 5.664 108.159 6.272C108.831 6.86933 109.167 7.776 109.167 8.992V14H107.279V12.96C107.034 13.3333 106.682 13.6213 106.223 13.824C105.775 14.016 105.231 14.112 104.591 14.112C103.951 14.112 103.391 14.0053 102.911 13.792C102.431 13.568 102.058 13.264 101.791 12.88C101.535 12.4853 101.407 12.0427 101.407 11.552C101.407 10.784 101.69 10.1707 102.255 9.712C102.831 9.24267 103.732 9.008 104.959 9.008H107.167V8.88C107.167 8.28267 106.986 7.824 106.623 7.504C106.271 7.184 105.743 7.024 105.039 7.024C104.559 7.024 104.084 7.09867 103.615 7.248C103.156 7.39733 102.767 7.60533 102.447 7.872L101.663 6.416C102.111 6.07467 102.65 5.81333 103.279 5.632C103.908 5.45067 104.575 5.36 105.279 5.36ZM105.007 12.656C105.508 12.656 105.951 12.544 106.335 12.32C106.73 12.0853 107.007 11.7547 107.167 11.328V10.336H105.103C103.951 10.336 103.375 10.7147 103.375 11.472C103.375 11.8347 103.519 12.1227 103.807 12.336C104.095 12.5493 104.495 12.656 105.007 12.656ZM111.734 5.456H113.734V14H111.734V5.456ZM112.742 4.048C112.379 4.048 112.075 3.936 111.83 3.712C111.585 3.47733 111.462 3.18933 111.462 2.848C111.462 2.50667 111.585 2.224 111.83 2C112.075 1.76533 112.379 1.648 112.742 1.648C113.105 1.648 113.409 1.76 113.654 1.984C113.899 2.19733 114.022 2.46933 114.022 2.8C114.022 3.152 113.899 3.45067 113.654 3.696C113.419 3.93067 113.115 4.048 112.742 4.048ZM121.207 5.36C122.284 5.36 123.148 5.67467 123.799 6.304C124.45 6.93333 124.775 7.86667 124.775 9.104V14H122.775V9.36C122.775 8.61333 122.599 8.05333 122.247 7.68C121.895 7.296 121.394 7.104 120.743 7.104C120.007 7.104 119.426 7.328 118.999 7.776C118.572 8.21333 118.359 8.848 118.359 9.68V14H116.359V5.456H118.263V6.56C118.594 6.16533 119.01 5.86667 119.511 5.664C120.012 5.46133 120.578 5.36 121.207 5.36ZM127.312 5.456H129.312V14H127.312V5.456ZM128.32 4.048C127.957 4.048 127.653 3.936 127.408 3.712C127.163 3.47733 127.04 3.18933 127.04 2.848C127.04 2.50667 127.163 2.224 127.408 2C127.653 1.76533 127.957 1.648 128.32 1.648C128.683 1.648 128.987 1.76 129.232 1.984C129.477 2.19733 129.6 2.46933 129.6 2.8C129.6 3.152 129.477 3.45067 129.232 3.696C128.997 3.93067 128.693 4.048 128.32 4.048ZM136.785 5.36C137.862 5.36 138.726 5.67467 139.377 6.304C140.028 6.93333 140.353 7.86667 140.353 9.104V14H138.353V9.36C138.353 8.61333 138.177 8.05333 137.825 7.68C137.473 7.296 136.972 7.104 136.321 7.104C135.585 7.104 135.004 7.328 134.577 7.776C134.15 8.21333 133.937 8.848 133.937 9.68V14H131.937V5.456H133.841V6.56C134.172 6.16533 134.588 5.86667 135.089 5.664C135.59 5.46133 136.156 5.36 136.785 5.36ZM151.448 5.456V12.704C151.448 15.712 149.912 17.216 146.84 17.216C146.019 17.216 145.24 17.1093 144.504 16.896C143.768 16.6933 143.16 16.3947 142.68 16L143.576 14.496C143.95 14.8053 144.419 15.0507 144.984 15.232C145.56 15.424 146.142 15.52 146.728 15.52C147.667 15.52 148.355 15.3067 148.792 14.88C149.23 14.4533 149.448 13.8027 149.448 12.928V12.48C149.107 12.8533 148.691 13.136 148.2 13.328C147.71 13.52 147.171 13.616 146.584 13.616C145.774 13.616 145.038 13.4453 144.376 13.104C143.726 12.752 143.208 12.2613 142.824 11.632C142.451 11.0027 142.264 10.2827 142.264 9.472C142.264 8.66133 142.451 7.94667 142.824 7.328C143.208 6.69867 143.726 6.21333 144.376 5.872C145.038 5.53067 145.774 5.36 146.584 5.36C147.203 5.36 147.763 5.46133 148.264 5.664C148.776 5.86667 149.203 6.176 149.544 6.592V5.456H151.448ZM146.888 11.92C147.646 11.92 148.264 11.696 148.744 11.248C149.235 10.7893 149.48 10.1973 149.48 9.472C149.48 8.75733 149.235 8.176 148.744 7.728C148.264 7.28 147.646 7.056 146.888 7.056C146.12 7.056 145.491 7.28 145 7.728C144.52 8.176 144.28 8.75733 144.28 9.472C144.28 10.1973 144.52 10.7893 145 11.248C145.491 11.696 146.12 11.92 146.888 11.92Z" fill="#2A2F44"/>
<defs>
<linearGradient id="paint0_linear" x1="24" y1="10" x2="0" y2="10" gradientUnits="userSpaceOnUse">
<stop stop-color="#DC1B48"/>
<stop offset="1" stop-color="#FF756D"/>
</linearGradient>
</defs>
</svg>
