<svg width="16" height="15" viewBox="0 0 16 15" fill="none" xmlns="http://www.w3.org/2000/svg">
<path d="M8 4.46738L8.68376 5.83308L9.15237 6.76907L10.1886 6.9175L11.658 7.12796L10.6143 8.1308L9.84726 8.86781L10.0296 9.91579L10.2822 11.3678L8.92024 10.662L8 10.1851L7.07976 10.662L5.71776 11.3678L5.9704 9.91579L6.15274 8.86781L5.38571 8.1308L4.34203 7.12796L5.81144 6.9175L6.84763 6.76907L7.31624 5.83308L8 4.46738ZM8 0L5.52786 4.9377L0 5.72949L4 9.57295L3.05573 15L8 12.4377L12.9443 15L12 9.57295L16 5.72949L10.4721 4.9377L8 0Z" fill="#C2C8DE"/>
</svg>
