<svg width="14" height="12" viewBox="0 0 14 12" fill="none" xmlns="http://www.w3.org/2000/svg">
<path d="M2.29297 10.293C1.90234 10.6836 1.90234 11.3164 2.29297 11.707C2.68359 12.0977 3.31641 12.0977 3.70703 11.707L7 8.41406L10.293 11.707C10.6836 12.0977 11.3164 12.0977 11.707 11.707C12.0977 11.3164 12.0977 10.6836 11.707 10.293L7.70703 6.29297C7.51172 6.09766 7.25586 6 7 6C6.74414 6 6.48828 6.09766 6.29297 6.29297L2.29297 10.293ZM13.707 7.70703C13.3164 8.09766 12.6836 8.09766 12.293 7.70703L7 2.41406L1.70703 7.70703C1.31641 8.09766 0.683594 8.09766 0.292969 7.70703C-0.0976562 7.31641 -0.0976562 6.68359 0.292969 6.29297L6.29297 0.292969C6.48828 0.0976562 6.74414 0 7 0C7.25586 0 7.51172 0.0976562 7.70703 0.292969L13.707 6.29297C14.0977 6.68359 14.0977 7.31641 13.707 7.70703Z" fill="white"/>
</svg>
