<svg width="30" height="30" viewBox="0 0 30 30" fill="none" xmlns="http://www.w3.org/2000/svg">
<path d="M30 11.459L19.6353 9.87543L15 0L10.3647 9.87543L0 11.459L7.5 19.1459L5.72949 30L15 24.8754L24.2705 30L22.5 19.1459L30 11.459ZM15.9676 23.1251L15 22.5901L14.0324 23.1251L8.36646 26.2571L9.47394 19.4679L9.63641 18.4717L8.93152 17.7492L4.14966 12.8482L10.6668 11.8525L11.7218 11.6913L12.1752 10.7252L15 4.70703L17.8248 10.7252L18.2782 11.6913L19.3332 11.8525L25.8503 12.8482L21.0685 17.7492L20.3636 18.4717L20.5261 19.4679L21.6335 26.2571L15.9676 23.1251ZM19 15.0557L17 17.1056L17.4722 20L15 18.6335L12.5279 20L13 17.1056L11 15.0557L13.7639 14.6335L15 12L16.2361 14.6335L19 15.0557Z" fill="url(#paint0_linear)"/>
<defs>
<linearGradient id="paint0_linear" x1="30" y1="15" x2="0" y2="15" gradientUnits="userSpaceOnUse">
<stop stop-color="#DC1B48"/>
<stop offset="1" stop-color="#FF756D"/>
</linearGradient>
</defs>
</svg>
